<svg width="1666" height="310" viewBox="0 0 1666 310" fill="none" xmlns="http://www.w3.org/2000/svg">
<path opacity="0.987" fill-rule="evenodd" clip-rule="evenodd" d="M757.595 48.8778C790.888 46.1001 817.135 58.1361 836.338 84.9858C841.187 92.9463 844.559 101.46 846.456 110.526C834.135 110.673 821.818 110.526 809.504 110.085C799.719 89.3303 783.296 80.5232 760.234 83.6648C736.675 89.6931 724.651 104.959 724.162 129.46C724.032 146.819 731.071 160.323 745.277 169.972C767.203 180.318 786.706 176.942 803.785 159.844C806.611 155.804 809.104 151.548 811.263 147.074C823.284 146.634 835.308 146.487 847.336 146.634C840.979 177.805 822.503 197.915 791.908 206.96C757.679 215.611 728.499 207.244 704.366 181.861C686.298 154.969 682.779 126.2 693.808 95.554C706.353 68.0649 727.616 52.5062 757.595 48.8778Z" fill="black"/>
<path opacity="0.988" fill-rule="evenodd" clip-rule="evenodd" d="M375.757 51.5198C420.335 51.5198 464.912 51.5198 509.489 51.5198C509.489 62.9687 509.489 74.4176 509.489 85.8664C493.066 85.8664 476.643 85.8664 460.219 85.8664C460.219 126.085 460.219 166.302 460.219 206.52C448.489 206.52 436.758 206.52 425.027 206.52C425.027 166.302 425.027 126.085 425.027 85.8664C408.604 85.8664 392.181 85.8664 375.757 85.8664C375.757 74.4176 375.757 62.9687 375.757 51.5198Z" fill="black"/>
<path opacity="0.97" fill-rule="evenodd" clip-rule="evenodd" d="M578.993 51.5199C590.94 51.2354 602.817 51.5289 614.625 52.4005C615.065 103.773 615.212 155.146 615.065 206.52C603.041 206.52 591.017 206.52 578.993 206.52C578.993 154.853 578.993 103.187 578.993 51.5199Z" fill="black"/>
<path opacity="0.981" fill-rule="evenodd" clip-rule="evenodd" d="M919.483 51.5199C931.43 51.2354 943.307 51.5289 955.115 52.4005C955.555 72.0669 955.702 91.7353 955.555 111.406C963.519 111.677 971.437 111.236 979.31 110.085C986.419 108.216 991.551 103.958 994.706 97.3153C1000.26 82.1136 1005.97 66.9953 1011.86 51.9602C1024.47 51.5199 1037.08 51.3731 1049.69 51.5199C1042.36 72.2092 1034.59 92.7587 1026.38 113.168C1022.96 119.577 1019 125.596 1014.5 131.222C1027.87 156.084 1041.36 180.889 1054.97 205.639C1041.2 206.666 1027.41 206.813 1013.62 206.08C1002.81 186.04 992.101 165.932 981.509 145.753C972.931 144.884 964.279 144.591 955.555 144.872C955.555 165.421 955.555 185.971 955.555 206.52C943.531 206.52 931.507 206.52 919.483 206.52C919.483 154.853 919.483 103.187 919.483 51.5199Z" fill="black"/>
<path opacity="0.991" fill-rule="evenodd" clip-rule="evenodd" d="M1140.31 51.5198C1174.33 51.5198 1208.35 51.5198 1242.37 51.5198C1242.37 61.7945 1242.37 72.069 1242.37 82.3437C1220.08 82.3437 1197.79 82.3437 1175.51 82.3437C1175.51 92.6186 1175.51 102.893 1175.51 113.168C1195.74 113.168 1215.98 113.168 1236.21 113.168C1236.21 123.148 1236.21 133.13 1236.21 143.111C1215.98 143.111 1195.74 143.111 1175.51 143.111C1175.51 154.266 1175.51 165.421 1175.51 176.577C1198.67 176.577 1221.84 176.577 1245.01 176.577C1245.01 186.557 1245.01 196.539 1245.01 206.52C1210.11 206.52 1175.21 206.52 1140.31 206.52C1140.31 154.853 1140.31 103.187 1140.31 51.5198Z" fill="black"/>
<path opacity="0.977" fill-rule="evenodd" clip-rule="evenodd" d="M1307.48 51.5199C1351.76 51.3731 1396.05 51.5199 1440.33 51.9602C1441.5 63.1156 1441.5 74.2708 1440.33 85.4261C1424.2 85.8664 1408.07 86.0132 1391.94 85.8664C1391.94 126.084 1391.94 166.302 1391.94 206.52C1379.91 206.52 1367.89 206.52 1355.87 206.52C1355.87 166.302 1355.87 126.084 1355.87 85.8664C1339.74 85.8664 1323.6 85.8664 1307.48 85.8664C1307.48 74.4176 1307.48 62.9687 1307.48 51.5199Z" fill="black"/>
<path opacity="0.986" fill-rule="evenodd" clip-rule="evenodd" d="M1510.71 51.5199C1533 51.3732 1555.29 51.5199 1577.57 51.9602C1617.82 53.7828 1636.73 74.7724 1634.32 114.929C1631.77 133.024 1622.24 145.794 1605.73 153.239C1616.4 170.632 1626.96 188.1 1637.4 205.639C1623.62 206.666 1609.84 206.813 1596.05 206.08C1586.96 190.521 1577.86 174.963 1568.77 159.404C1561.45 158.963 1554.12 158.817 1546.78 158.963C1546.78 174.816 1546.78 190.668 1546.78 206.52C1534.75 206.52 1522.73 206.52 1510.71 206.52C1510.71 154.853 1510.71 103.187 1510.71 51.5199ZM1545.9 82.3438C1554.71 82.1972 1563.5 82.344 1572.29 82.7841C1592.75 83.5817 1601.11 94.0032 1597.37 114.048C1594.24 121.855 1588.52 126.404 1580.21 127.699C1568.77 128.139 1557.34 128.286 1545.9 128.139C1545.9 112.874 1545.9 97.6087 1545.9 82.3438Z" fill="black"/>
<path opacity="0.99" fill-rule="evenodd" clip-rule="evenodd" d="M1509.84 226.775C1552.95 226.775 1596.06 226.775 1639.17 226.775C1639.17 241.16 1639.17 255.545 1639.17 269.929C1596.06 269.929 1552.95 269.929 1509.84 269.929C1509.84 255.545 1509.84 241.16 1509.84 226.775Z" fill="black"/>
<path d="M107.575 40.0256H245.026L143.972 189.644H6.52L107.575 40.0256Z" fill="#A3E635"/>
<path d="M113.594 203.511L74.453 261.462H218.425L319.48 111.843H213.22L151.306 203.511H113.594Z" fill="#7ACC00"/>
</svg>
