<svg width="1481" height="352" viewBox="0 0 1481 352" fill="none" xmlns="http://www.w3.org/2000/svg">
<path opacity="0.987" fill-rule="evenodd" clip-rule="evenodd" d="M448.5 55.5C486.341 52.3459 516.174 66.0126 538 96.5C543.511 105.539 547.344 115.206 549.5 125.5C535.496 125.667 521.496 125.5 507.5 125C496.378 101.433 477.712 91.4328 451.5 95C424.723 101.845 411.056 119.179 410.5 147C410.353 166.71 418.353 182.044 434.5 193C459.421 204.748 481.588 200.914 501 181.5C504.212 176.913 507.045 172.08 509.5 167C523.163 166.5 536.829 166.333 550.5 166.5C543.275 201.895 522.275 224.729 487.5 235C448.596 244.822 415.43 235.322 388 206.5C367.464 175.965 363.464 143.298 376 108.5C390.259 77.2866 414.426 59.6199 448.5 55.5Z" fill="#65A30D"/>
<path opacity="0.988" fill-rule="evenodd" clip-rule="evenodd" d="M14.5 58.5C65.1667 58.5 115.833 58.5 166.5 58.5C166.5 71.5 166.5 84.5 166.5 97.5C147.833 97.5 129.167 97.5 110.5 97.5C110.5 143.167 110.5 188.833 110.5 234.5C97.1667 234.5 83.8333 234.5 70.5 234.5C70.5 188.833 70.5 143.167 70.5 97.5C51.8333 97.5 33.1667 97.5 14.5 97.5C14.5 84.5 14.5 71.5 14.5 58.5Z" fill="#65A30D"/>
<path opacity="0.97" fill-rule="evenodd" clip-rule="evenodd" d="M245.5 58.5C259.079 58.177 272.579 58.5103 286 59.5C286.5 117.832 286.667 176.166 286.5 234.5C272.833 234.5 259.167 234.5 245.5 234.5C245.5 175.833 245.5 117.167 245.5 58.5Z" fill="#65A30D"/>
<path opacity="0.981" fill-rule="evenodd" clip-rule="evenodd" d="M632.5 58.5C646.079 58.177 659.579 58.5103 673 59.5C673.5 81.8308 673.667 104.164 673.5 126.5C682.552 126.807 691.552 126.307 700.5 125C708.581 122.877 714.414 118.043 718 110.5C724.308 93.2387 730.808 76.0721 737.5 59C751.829 58.5001 766.163 58.3334 780.5 58.5C772.168 81.9924 763.335 105.326 754 128.5C750.115 135.778 745.615 142.612 740.5 149C755.699 177.231 771.032 205.397 786.5 233.5C770.844 234.666 755.177 234.833 739.5 234C727.206 211.246 715.039 188.413 703 165.5C693.25 164.514 683.416 164.181 673.5 164.5C673.5 187.833 673.5 211.167 673.5 234.5C659.833 234.5 646.167 234.5 632.5 234.5C632.5 175.833 632.5 117.167 632.5 58.5Z" fill="#65A30D"/>
<path opacity="0.991" fill-rule="evenodd" clip-rule="evenodd" d="M883.5 58.5C922.167 58.5 960.833 58.5 999.5 58.5C999.5 70.1667 999.5 81.8333 999.5 93.5C974.167 93.5 948.833 93.5 923.5 93.5C923.5 105.167 923.5 116.833 923.5 128.5C946.5 128.5 969.5 128.5 992.5 128.5C992.5 139.833 992.5 151.167 992.5 162.5C969.5 162.5 946.5 162.5 923.5 162.5C923.5 175.167 923.5 187.833 923.5 200.5C949.833 200.5 976.167 200.5 1002.5 200.5C1002.5 211.833 1002.5 223.167 1002.5 234.5C962.833 234.5 923.167 234.5 883.5 234.5C883.5 175.833 883.5 117.167 883.5 58.5Z" fill="#65A30D"/>
<path opacity="0.977" fill-rule="evenodd" clip-rule="evenodd" d="M1073.5 58.5C1123.83 58.3333 1174.17 58.5 1224.5 59C1225.83 71.6667 1225.83 84.3333 1224.5 97C1206.17 97.4999 1187.84 97.6666 1169.5 97.5C1169.5 143.167 1169.5 188.833 1169.5 234.5C1155.83 234.5 1142.17 234.5 1128.5 234.5C1128.5 188.833 1128.5 143.167 1128.5 97.5C1110.17 97.5 1091.83 97.5 1073.5 97.5C1073.5 84.5 1073.5 71.5 1073.5 58.5Z" fill="#65A30D"/>
<path opacity="0.986" fill-rule="evenodd" clip-rule="evenodd" d="M1304.5 58.5C1329.84 58.3334 1355.17 58.5 1380.5 59C1426.24 61.0695 1447.74 84.9028 1445 130.5C1442.1 151.047 1431.27 165.547 1412.5 174C1424.63 193.75 1436.63 213.584 1448.5 233.5C1432.84 234.666 1417.18 234.833 1401.5 234C1391.17 216.333 1380.83 198.667 1370.5 181C1362.17 180.5 1353.84 180.334 1345.5 180.5C1345.5 198.5 1345.5 216.5 1345.5 234.5C1331.83 234.5 1318.17 234.5 1304.5 234.5C1304.5 175.833 1304.5 117.167 1304.5 58.5ZM1344.5 93.5C1354.51 93.3335 1364.51 93.5002 1374.5 94C1397.75 94.9056 1407.25 106.739 1403 129.5C1399.44 138.364 1392.94 143.53 1383.5 145C1370.5 145.5 1357.5 145.667 1344.5 145.5C1344.5 128.167 1344.5 110.833 1344.5 93.5Z" fill="#65A30D"/>
<path opacity="0.99" fill-rule="evenodd" clip-rule="evenodd" d="M1303.5 257.5C1352.5 257.5 1401.5 257.5 1450.5 257.5C1450.5 273.833 1450.5 290.167 1450.5 306.5C1401.5 306.5 1352.5 306.5 1303.5 306.5C1303.5 290.167 1303.5 273.833 1303.5 257.5Z" fill="#65A30D"/>
</svg>
